<svg viewBox="0 0 263 72" fill="none" xmlns="http://www.w3.org/2000/svg"><path d="M46.8 25.2h21.6v3.6c0 25.2-10.8 39.6-39.6 39.6h-3.6V46.8h3.6c12.6 0 18-5.4 18-18v-3.6ZM3.6 25.2h21.6v21.6H3.6z" fill="#47E054"/><path fill="#47E054" d="M25.2 3.6h21.6v21.6H25.2z"/><path d="M88 61v-8.244h9.468c1.632 0 2.952-.504 3.96-1.512s1.512-2.328 1.512-3.96V10.6h8.82v37.692c0 2.496-.552 4.716-1.656 6.66-1.08 1.92-2.616 3.408-4.608 4.464-1.992 1.056-4.272 1.584-6.84 1.584H88Zm58.469-36.864h8.568V61h-8.352v-5.76c-1.152 2.16-2.724 3.804-4.716 4.932-1.992 1.128-4.248 1.692-6.768 1.692-2.64 0-4.968-.576-6.984-1.728-2.017-1.152-3.589-2.82-4.717-5.004-1.128-2.184-1.692-4.788-1.692-7.812V24.136h8.532v21.852c0 2.664.673 4.728 2.017 6.192 1.368 1.44 3.275 2.16 5.723 2.16 1.633 0 3.085-.372 4.356-1.116a7.826 7.826 0 0 0 2.953-3.168c.72-1.344 1.08-2.88 1.08-4.608V24.136Zm38.394-.864c2.64 0 4.968.576 6.984 1.728 2.04 1.152 3.623 2.82 4.751 5.004 1.129 2.184 1.693 4.788 1.693 7.812V61h-8.568V39.148c0-2.664-.684-4.716-2.052-6.156-1.345-1.464-3.241-2.196-5.689-2.196-1.631 0-3.083.384-4.356 1.152-1.272.744-2.268 1.788-2.988 3.132-.696 1.344-1.044 2.88-1.044 4.608V61h-8.532V24.136h8.316v5.76c1.152-2.16 2.724-3.804 4.716-4.932 1.992-1.128 4.249-1.692 6.769-1.692ZM216.02 61h-8.568V24.136h8.568V61Zm-8.964-42.264V10.6h9.288v8.136h-9.288Zm53.329 26.136h-28.116c.24 1.92.828 3.612 1.764 5.076.936 1.464 2.136 2.604 3.6 3.42 1.464.792 3.096 1.188 4.896 1.188 2.112 0 3.9-.312 5.364-.936 1.464-.624 2.592-1.524 3.384-2.7h8.46c-.384 1.8-1.332 3.54-2.844 5.22-1.512 1.68-3.528 3.06-6.048 4.14-2.52 1.056-5.4 1.584-8.64 1.584-3.6 0-6.84-.828-9.72-2.484-2.856-1.656-5.088-3.948-6.696-6.876-1.608-2.952-2.412-6.276-2.412-9.972 0-3.648.816-6.936 2.448-9.864 1.632-2.928 3.876-5.22 6.732-6.876 2.88-1.68 6.096-2.52 9.648-2.52 3.648 0 6.84.828 9.576 2.484 2.76 1.656 4.884 3.948 6.372 6.876 1.488 2.904 2.232 6.204 2.232 9.9v2.34Zm-18.144-14.508c-2.592 0-4.776.768-6.552 2.304-1.752 1.536-2.868 3.624-3.348 6.264h19.26c-.432-2.64-1.452-4.728-3.06-6.264-1.584-1.536-3.684-2.304-6.3-2.304Z" fill="#fff"/></svg>