<svg width="32" height="32" viewBox="0 0 32 32" fill="none" xmlns="http://www.w3.org/2000/svg">
<rect width="32" height="32" rx="5.05263" fill="white"/>
<path fill-rule="evenodd" clip-rule="evenodd" d="M7.3269 6.97196C7.10886 7.41969 7.29244 7.96069 7.73694 8.18031C8.37539 8.49577 8.92943 8.80682 9.47799 9.42979C9.80652 9.80287 10.3731 9.83706 10.7435 9.50615C11.1139 9.17524 11.1478 8.60453 10.8193 8.23145C10.0376 7.34372 9.23299 6.90799 8.52654 6.55894C8.08204 6.33932 7.54494 6.52423 7.3269 6.97196Z" fill="#34322D"/>
<path fill-rule="evenodd" clip-rule="evenodd" d="M12.1721 4.34285C11.6918 4.4638 11.3998 4.95405 11.5198 5.43786C11.6037 5.77586 11.682 6.06488 11.7536 6.32945C11.8907 6.83585 12.0035 7.25269 12.0854 7.75209C12.166 8.24413 12.6274 8.57716 13.1159 8.49593C13.6044 8.4147 13.935 7.94998 13.8543 7.45795C13.7576 6.8677 13.607 6.30922 13.4558 5.74868C13.3888 5.50045 13.3218 5.25183 13.2592 4.99985C13.1391 4.51605 12.6524 4.2219 12.1721 4.34285Z" fill="#34322D"/>
<path fill-rule="evenodd" clip-rule="evenodd" d="M17.2966 4.89837C16.8734 4.63967 16.322 4.77558 16.0652 5.20193C15.5888 5.99281 15.3383 6.77154 15.1057 7.70876C14.9856 8.19256 15.2777 8.68282 15.758 8.80377C16.2383 8.92472 16.725 8.63057 16.8451 8.14676C17.0607 7.27804 17.2585 6.70232 17.598 6.13875C17.8548 5.7124 17.7199 5.15706 17.2966 4.89837Z" fill="#34322D"/>
<path fill-rule="evenodd" clip-rule="evenodd" d="M21.8669 27.2046C23.6053 26.0937 24.8072 20.1356 24.5428 18.3615C24.5428 18.3615 24.2673 17.409 23.595 17.4089C23.0798 17.4089 22.7952 17.8277 22.6902 18.0236C22.5994 17.99 22.507 17.9596 22.4337 17.9359C22.3942 17.9232 22.3388 17.9056 22.2868 17.889L22.1883 17.8576C22.1079 17.8318 22.0321 17.807 21.9608 17.7824L21.961 17.7571C21.9641 17.1813 21.9056 16.2826 21.3091 15.3463C21.2137 15.1965 21.1236 15.0625 21.0466 14.9489L20.9983 14.8777C20.941 14.7933 20.896 14.7271 20.8528 14.661C20.7466 14.4989 20.7176 14.4364 20.7064 14.4076L20.7058 14.4063C20.7014 14.3951 20.6925 14.3724 20.69 14.3031C20.687 14.2179 20.6943 14.0567 20.7495 13.7747L21.0366 12.6274L21.0377 12.6215C21.0566 12.5161 21.0737 12.4215 21.0829 12.2673C21.0915 12.1254 21.0932 11.9192 21.0572 11.6801C20.9889 11.227 20.727 10.3683 19.8038 9.87044C19.5782 9.74879 19.308 9.67596 19.0416 9.64113C18.8625 9.61771 18.6231 9.60169 18.3451 9.62317C17.7779 9.66697 17.0336 9.8712 16.371 10.4787L16.206 10.6522C15.8209 11.1174 15.4141 11.6934 15.1055 12.2031C14.1686 11.762 13.0657 11.2557 12.2951 10.9835C11.4494 10.6847 10.5055 10.4347 9.61848 10.4669C8.63612 10.5025 7.53162 10.9143 6.95339 12.08C6.71585 12.5588 6.61449 13.1181 6.73647 13.7009C6.85304 14.2579 7.14133 14.6839 7.41667 14.9811C7.92789 15.5329 8.61265 15.8748 9.09526 16.082C9.46477 16.2407 9.84444 16.3727 10.1806 16.4795C10.1451 16.5438 10.1095 16.6103 10.0752 16.6778C9.97358 16.8776 9.85198 17.145 9.77193 17.4509C9.6921 17.756 9.62915 18.1907 9.74295 18.681C9.85975 19.1843 10.0909 19.5773 10.3662 19.8779C10.3558 20.0342 10.3519 20.1989 10.3577 20.3694C10.3964 21.5079 11.0916 22.2669 11.7031 22.6973C12.2857 23.1073 12.9718 23.359 13.5265 23.5282C14.0622 23.6916 14.6278 23.8213 15.0874 23.9267L15.1858 23.9492C15.6756 24.0617 16.1597 24.1919 16.6439 24.3221C17.1932 24.4698 17.7427 24.6176 18.301 24.7397C18.4837 24.7797 18.6611 24.8179 18.8243 24.8527L18.8838 25.0077C19.6081 26.8585 20.5752 28.0302 21.8669 27.2046ZM15.249 19.6293C15.1499 19.589 15.093 19.5623 15.0425 19.5369C14.6038 19.3086 14.0642 19.4807 13.836 19.9221C13.6073 20.3645 13.7784 20.91 14.2176 21.1403C14.2536 21.1591 14.2901 21.1768 14.3268 21.1941C14.3883 21.2231 14.474 21.2617 14.5784 21.3041C14.7841 21.3877 15.0766 21.4918 15.4083 21.5627C15.9969 21.6884 17.0848 21.7843 17.8224 20.9328C18.1765 20.524 18.3468 19.9868 18.4114 19.4846C18.478 18.9672 18.4448 18.3995 18.3148 17.8471C18.0587 16.7587 17.3808 15.5678 16.1149 15.003C15.0302 14.5191 13.9583 14.4053 13.0544 14.5074C12.4509 14.5756 11.8743 14.7466 11.4111 15.0073V14.9873C10.2785 14.6615 8.0244 14.0131 8.57949 12.8941C9.00028 12.0459 10.1531 12.116 11.7168 12.6684C12.352 12.8928 13.2346 13.2926 14.0671 13.6825C14.3251 13.8034 14.5784 13.9233 14.8179 14.0367C15.1671 14.202 15.7509 14.4743 15.7509 14.4743C16.4149 13.6717 16.6727 13.2296 16.9002 12.8393C17.0567 12.5709 17.1989 12.3271 17.4491 12.0074C17.8032 11.5548 18.3756 11.2752 18.9628 11.4389C19.372 11.6596 19.268 12.217 19.268 12.217L18.9836 13.3534C18.7121 14.6909 19.0126 15.1335 19.5079 15.8629C19.5949 15.991 19.688 16.1281 19.785 16.2803C20.18 16.9004 20.1617 17.4967 20.1468 17.9833C20.1373 18.2963 20.1291 18.564 20.2331 18.7635C20.4474 19.1743 21.2494 19.4291 21.7753 19.5961C21.9016 19.6363 22.012 19.6714 22.0945 19.7023L22.1508 19.7246C22.0767 19.9561 22.0094 20.1958 21.9421 20.4352C21.643 21.4999 21.3452 22.5598 20.4574 22.8774C19.3368 23.2782 18.2162 22.8989 18.2162 22.8989C18.0142 22.8395 17.8086 22.7934 17.6029 22.7474C17.3465 22.69 17.09 22.6326 16.8405 22.5492C16.4926 22.4191 16.0054 22.3073 15.4759 22.1858C14.215 21.8966 12.7144 21.5523 12.2847 20.7751C12.2123 20.6442 12.1703 20.501 12.1649 20.3437C12.1406 19.6291 12.3892 18.9892 12.3892 18.9892C12.3892 18.9892 12.0037 18.9908 11.7333 18.7288C11.6325 18.6312 11.5478 18.4969 11.5049 18.3122C11.4193 17.9434 11.4928 17.4088 11.941 16.9573L12.1656 16.7317C12.2791 16.6174 12.6155 16.3742 13.2542 16.3021C13.8604 16.2336 14.6109 16.3072 15.3887 16.6542C15.9854 16.9204 16.3979 17.5312 16.5702 18.2635C16.6544 18.6214 16.6699 18.9689 16.6334 19.2524C16.5949 19.551 16.5103 19.7007 16.4714 19.7455C16.4232 19.8012 16.2532 19.8971 15.7804 19.796C15.5813 19.7535 15.3922 19.6875 15.249 19.6293Z" fill="#34322D"/>
</svg>
