<svg width="500" height="500" viewBox="0 0 500 500" fill="none" xmlns="http://www.w3.org/2000/svg">
<path d="M499.999 157.636C499.999 83.9572 416.043 0.00152935 342.364 0.00152935C327.753 -0.0866794 313.373 3.64226 300.647 10.8192C287.921 17.9962 277.29 28.3724 269.806 40.9206C260.703 55.4648 254.015 71.3864 250 88.0678C245.985 71.3864 239.297 55.4648 230.194 40.9206C222.71 28.3724 212.079 17.9962 199.353 10.8192C186.627 3.64226 172.247 -0.0866794 157.636 0.00152935C83.9572 0.00152935 0.00152935 83.9572 0.00152935 157.636C-0.0866794 172.247 3.64226 186.627 10.8192 199.353C17.9962 212.079 28.3724 222.71 40.9206 230.194C55.4648 239.297 71.3864 245.985 88.0678 250C71.3864 254.015 55.4648 260.703 40.9206 269.806C28.3724 277.29 17.9962 287.921 10.8192 300.647C3.64226 313.373 -0.0866794 327.753 0.00152935 342.364C0.00152935 416.043 83.9572 499.999 157.636 499.999C172.247 500.087 186.627 496.358 199.353 489.181C212.079 482.004 222.71 471.628 230.194 459.079C239.297 444.535 245.985 428.614 250 411.932C254.015 428.614 260.703 444.535 269.806 459.079C277.29 471.628 287.921 482.004 300.647 489.181C313.373 496.358 327.753 500.087 342.364 499.999C416.043 499.999 499.999 416.043 499.999 342.364C500.087 327.753 496.358 313.373 489.181 300.647C482.004 287.921 471.628 277.29 459.079 269.806C444.535 260.703 428.614 254.015 411.932 250C428.614 245.985 444.535 239.297 459.079 230.194C471.628 222.71 482.004 212.079 489.181 199.353C496.358 186.627 500.087 172.247 499.999 157.636Z" fill="#FCAA26"/>
</svg>
